<?xml version="1.0" encoding="UTF-8" standalone="no"?>
<!DOCTYPE svg PUBLIC "-//W3C//DTD SVG 1.1//EN"
 "http://www.w3.org/Graphics/SVG/1.1/DTD/svg11.dtd">
<!-- Generated by graphviz version 2.43.0 (0)
 -->
<!-- Title: Azure Analytics Pages: 1 -->
<svg width="1242pt" height="739pt"
 viewBox="0.00 0.00 1242.00 739.00" xmlns="http://www.w3.org/2000/svg" xmlns:xlink="http://www.w3.org/1999/xlink">
<g id="graph0" class="graph" transform="scale(1 1) rotate(0) translate(144 595)">
<title>Azure Analytics</title>
<polygon fill="white" stroke="transparent" points="-144,144 -144,-595 1098,-595 1098,144 -144,144"/>
<text text-anchor="middle" x="477" y="-9" font-family="Sans-Serif" font-size="15.00" fill="#2d3436">Azure Analytics</text>
<g id="clust1" class="cluster">
<title>cluster_On&#45;Premises</title>
<path fill="#e5f5fd" stroke="#aeb6be" d="M20,-85C20,-85 269,-85 269,-85 275,-85 281,-91 281,-97 281,-97 281,-248 281,-248 281,-254 275,-260 269,-260 269,-260 20,-260 20,-260 14,-260 8,-254 8,-248 8,-248 8,-97 8,-97 8,-91 14,-85 20,-85"/>
<text text-anchor="middle" x="54" y="-246.4" font-family="Sans-Serif" font-size="12.00" fill="#2d3436">On&#45;Premises</text>
</g>
<g id="clust2" class="cluster">
<title>cluster_Azure</title>
<path fill="#e5f5fd" stroke="#aeb6be" d="M365,-51C365,-51 934,-51 934,-51 940,-51 946,-57 946,-63 946,-63 946,-431 946,-431 946,-437 940,-443 934,-443 934,-443 365,-443 365,-443 359,-443 353,-437 353,-431 353,-431 353,-63 353,-63 353,-57 359,-51 365,-51"/>
<text text-anchor="middle" x="378" y="-429.4" font-family="Sans-Serif" font-size="12.00" fill="#2d3436">Azure</text>
</g>
<g id="clust3" class="cluster">
<title>cluster_Virtual Network</title>
<path fill="#ebf3e7" stroke="#aeb6be" d="M521,-59C521,-59 926,-59 926,-59 932,-59 938,-65 938,-71 938,-71 938,-402 938,-402 938,-408 932,-414 926,-414 926,-414 521,-414 521,-414 515,-414 509,-408 509,-402 509,-402 509,-71 509,-71 509,-65 515,-59 521,-59"/>
<text text-anchor="middle" x="564" y="-400.4" font-family="Sans-Serif" font-size="12.00" fill="#2d3436">Virtual Network</text>
</g>
<!-- 3e25948e250d4eedb580e61da26bd3c2 -->
<g id="node1" class="node">
<title>3e25948e250d4eedb580e61da26bd3c2</title>
<image xlink:href="/usr/local/lib/python3.8/dist-packages/resources/generic/database/sql.png" width="101px" height="101px" preserveAspectRatio="xMinYMin meet" x="16" y="-212.5"/>
<text text-anchor="middle" x="66.5" y="-96.5" font-family="Sans-Serif" font-size="10.00" fill="#2d3436">Sql Server</text>
</g>
<!-- e95d3e5d19f44837bd2cb2e45fdad9e4 -->
<g id="node2" class="node">
<title>e95d3e5d19f44837bd2cb2e45fdad9e4</title>
<image xlink:href="/usr/local/lib/python3.8/dist-packages/resources/azure/database/data-factory.png" width="101px" height="101px" preserveAspectRatio="xMinYMin meet" x="172" y="-212.5"/>
<text text-anchor="middle" x="222.5" y="-96.5" font-family="Sans-Serif" font-size="10.00" fill="#2d3436">Integration Runtime</text>
</g>
<!-- 3e25948e250d4eedb580e61da26bd3c2&#45;&gt;e95d3e5d19f44837bd2cb2e45fdad9e4 -->
<g id="edge1" class="edge">
<title>3e25948e250d4eedb580e61da26bd3c2&#45;&gt;e95d3e5d19f44837bd2cb2e45fdad9e4</title>
<path fill="none" stroke="#7b8894" d="M117.15,-162C117.15,-162 161.84,-162 161.84,-162"/>
<polygon fill="#7b8894" stroke="#7b8894" points="161.84,-165.5 171.84,-162 161.84,-158.5 161.84,-165.5"/>
</g>
<!-- e0afa762bd6d425cb310920fec336696 -->
<g id="node3" class="node">
<title>e0afa762bd6d425cb310920fec336696</title>
<image xlink:href="/usr/local/lib/python3.8/dist-packages/resources/azure/storage/storage-accounts.png" width="101px" height="101px" preserveAspectRatio="xMinYMin meet" x="361" y="-381.5"/>
<text text-anchor="middle" x="411.5" y="-265.5" font-family="Sans-Serif" font-size="10.00" fill="#2d3436">Transient In</text>
</g>
<!-- e95d3e5d19f44837bd2cb2e45fdad9e4&#45;&gt;e0afa762bd6d425cb310920fec336696 -->
<g id="edge4" class="edge">
<title>e95d3e5d19f44837bd2cb2e45fdad9e4&#45;&gt;e0afa762bd6d425cb310920fec336696</title>
<path fill="none" stroke="blue" d="M273.28,-226.83C329.41,-226.83 412,-226.83 412,-226.83 412,-226.83 412,-252.39 412,-252.39"/>
<polygon fill="blue" stroke="blue" points="408.5,-252.39 412,-262.39 415.5,-252.39 408.5,-252.39"/>
<text text-anchor="middle" x="317" y="-249.6" font-family="Sans-Serif" font-size="13.00" fill="#2d3436">https</text>
</g>
<!-- 2d02ea6b85ed4b829cb234b68b20f257 -->
<g id="node5" class="node">
<title>2d02ea6b85ed4b829cb234b68b20f257</title>
<image xlink:href="/usr/local/lib/python3.8/dist-packages/resources/azure/network/virtual-networks.png" width="101px" height="101px" preserveAspectRatio="xMinYMin meet" x="517" y="-366.5"/>
<text text-anchor="middle" x="567.5" y="-250.5" font-family="Sans-Serif" font-size="10.00" fill="#2d3436">Virtual Network</text>
</g>
<!-- e95d3e5d19f44837bd2cb2e45fdad9e4&#45;&gt;2d02ea6b85ed4b829cb234b68b20f257 -->
<g id="edge2" class="edge">
<title>e95d3e5d19f44837bd2cb2e45fdad9e4&#45;&gt;2d02ea6b85ed4b829cb234b68b20f257</title>
<path fill="none" stroke="red" d="M273.11,-223.17C369.07,-223.17 568,-223.17 568,-223.17 568,-223.17 568,-237.07 568,-237.07"/>
<polygon fill="red" stroke="red" points="564.5,-237.07 568,-247.07 571.5,-237.07 564.5,-237.07"/>
<text text-anchor="middle" x="411.5" y="-28.6" font-family="Sans-Serif" font-size="13.00" fill="#2d3436">Express Route</text>
</g>
<!-- e0afa762bd6d425cb310920fec336696&#45;&gt;2d02ea6b85ed4b829cb234b68b20f257 -->
<g id="edge5" class="edge">
<title>e0afa762bd6d425cb310920fec336696&#45;&gt;2d02ea6b85ed4b829cb234b68b20f257</title>
<path fill="none" stroke="#7b8894" d="M462.15,-323.5C462.15,-323.5 506.84,-323.5 506.84,-323.5"/>
<polygon fill="#7b8894" stroke="#7b8894" points="506.84,-327 516.84,-323.5 506.84,-320 506.84,-327"/>
</g>
<!-- 98d83aa07b7e4da3b7181873f1553f19 -->
<g id="node4" class="node">
<title>98d83aa07b7e4da3b7181873f1553f19</title>
<image xlink:href="/usr/local/lib/python3.8/dist-packages/resources/azure/storage/storage-accounts.png" width="101px" height="101px" preserveAspectRatio="xMinYMin meet" x="361" y="-201.5"/>
<text text-anchor="middle" x="411.5" y="-85.5" font-family="Sans-Serif" font-size="10.00" fill="#2d3436">Transient Out</text>
</g>
<!-- c18a5b11757b416ab1ca544b1cbc85e5 -->
<g id="node6" class="node">
<title>c18a5b11757b416ab1ca544b1cbc85e5</title>
<image xlink:href="/usr/local/lib/python3.8/dist-packages/resources/azure/storage/storage-accounts.png" width="101px" height="101px" preserveAspectRatio="xMinYMin meet" x="673" y="-366.5"/>
<text text-anchor="middle" x="723.5" y="-250.5" font-family="Sans-Serif" font-size="10.00" fill="#2d3436">Data Lake</text>
</g>
<!-- 2d02ea6b85ed4b829cb234b68b20f257&#45;&gt;c18a5b11757b416ab1ca544b1cbc85e5 -->
<g id="edge3" class="edge">
<title>2d02ea6b85ed4b829cb234b68b20f257&#45;&gt;c18a5b11757b416ab1ca544b1cbc85e5</title>
<path fill="none" stroke="#7b8894" d="M618.15,-293.17C618.15,-293.17 662.84,-293.17 662.84,-293.17"/>
<polygon fill="#7b8894" stroke="#7b8894" points="662.84,-296.67 672.84,-293.17 662.84,-289.67 662.84,-296.67"/>
</g>
<!-- 2d02ea6b85ed4b829cb234b68b20f257&#45;&gt;c18a5b11757b416ab1ca544b1cbc85e5 -->
<g id="edge6" class="edge">
<title>2d02ea6b85ed4b829cb234b68b20f257&#45;&gt;c18a5b11757b416ab1ca544b1cbc85e5</title>
<path fill="none" stroke="#7b8894" d="M618.15,-338.83C618.15,-338.83 662.84,-338.83 662.84,-338.83"/>
<polygon fill="#7b8894" stroke="#7b8894" points="662.84,-342.33 672.84,-338.83 662.84,-335.33 662.84,-342.33"/>
</g>
<!-- 537343d98c3b4a68a9b1c1f4744ac2f0 -->
<g id="node7" class="node">
<title>537343d98c3b4a68a9b1c1f4744ac2f0</title>
<image xlink:href="/usr/local/lib/python3.8/dist-packages/resources/azure/analytics/synapse-analytics.png" width="101px" height="101px" preserveAspectRatio="xMinYMin meet" x="829" y="-366.5"/>
<text text-anchor="middle" x="879.5" y="-250.5" font-family="Sans-Serif" font-size="10.00" fill="#2d3436">Synapse</text>
</g>
<!-- c18a5b11757b416ab1ca544b1cbc85e5&#45;&gt;537343d98c3b4a68a9b1c1f4744ac2f0 -->
<g id="edge7" class="edge">
<title>c18a5b11757b416ab1ca544b1cbc85e5&#45;&gt;537343d98c3b4a68a9b1c1f4744ac2f0</title>
<path fill="none" stroke="#7b8894" d="M774.15,-316C774.15,-316 818.84,-316 818.84,-316"/>
<polygon fill="#7b8894" stroke="#7b8894" points="818.84,-319.5 828.84,-316 818.84,-312.5 818.84,-319.5"/>
</g>
<!-- 6f59292bb58342ec9fc7dd7279edd80a -->
<g id="node8" class="node">
<title>6f59292bb58342ec9fc7dd7279edd80a</title>
<image xlink:href="./icons/Private-Link.png" width="101px" height="101px" preserveAspectRatio="xMinYMin meet" x="517" y="-186.5"/>
<text text-anchor="middle" x="567.5" y="-71.1" font-family="Sans-Serif" font-size="13.00" fill="#2d3436">Private Link</text>
</g>
</g>
</svg>
